<?xml version="1.0" encoding="UTF-8" standalone="no"?>
<!DOCTYPE svg PUBLIC "-//W3C//DTD SVG 1.1//EN" "http://www.w3.org/Graphics/SVG/1.1/DTD/svg11.dtd">
<svg width="100%" height="100%" viewBox="0 0 125 122" version="1.1" xmlns="http://www.w3.org/2000/svg" xmlns:xlink="http://www.w3.org/1999/xlink" xml:space="preserve" xmlns:serif="http://www.serif.com/" style="fill-rule:evenodd;clip-rule:evenodd;stroke-linejoin:round;stroke-miterlimit:1.41421;">
    <g transform="matrix(1,0,0,1,116.824,73.9084)">
        <g id="cirkel">
            <path d="M0,-23.866C0.001,-23.866 0.002,-23.866 0.003,-23.865L0.157,-23.982L0.046,-23.72C0.004,-23.792 -0.016,-23.881 0,-23.866M-88.972,-24.839C-88.99,-24.746 -89.016,-24.707 -89.115,-24.751C-89.072,-24.791 -89.041,-24.862 -88.972,-24.839M-64.734,-35.022C-64.927,-34.763 -65.161,-35.014 -64.911,-35.181C-64.861,-35.136 -64.811,-35.091 -64.734,-35.022M-63.308,-52.774C-63.326,-52.691 -63.366,-52.732 -63.42,-52.751C-63.387,-52.783 -63.351,-52.796 -63.308,-52.774M-25.002,-47.034C-24.996,-47.156 -24.892,-47.273 -24.832,-47.392C-24.662,-47.298 -24.492,-47.204 -24.235,-47.063C-24.523,-46.671 -24.98,-46.466 -25.002,-47.034M-26.645,-45.7C-26.456,-46.073 -26.134,-46.48 -25.723,-46.066C-26.008,-45.736 -26.244,-45.671 -26.645,-45.7M-29.994,-47.511C-29.992,-47.772 -29.648,-48.1 -29.347,-48.23C-28.558,-47.858 -29.649,-47.074 -29.994,-47.511M-33.602,-46.486C-33.506,-46.613 -33.502,-46.954 -33.302,-46.84C-33.396,-46.708 -33.407,-46.479 -33.563,-46.43C-33.577,-46.449 -33.606,-46.475 -33.602,-46.486M-40.638,-38.634C-40.593,-38.773 -40.534,-38.891 -40.409,-38.978C-39.71,-38.465 -41.024,-37.43 -40.638,-38.634M-46.855,-34.843C-46.683,-35.428 -46.479,-36.956 -45.971,-35.733C-45.959,-35.241 -46.541,-34.423 -46.855,-34.843M-49.728,-56.174L-49.573,-56.554C-49.543,-56.534 -49.513,-56.514 -49.483,-56.493C-49.565,-56.387 -49.646,-56.28 -49.728,-56.174M-50.128,-55.89C-50.014,-55.96 -49.9,-56.031 -49.786,-56.101C-49.874,-55.997 -49.962,-55.892 -50.05,-55.787C-50.076,-55.822 -50.102,-55.856 -50.128,-55.89M-26.805,-28.144C-26.656,-28.347 -26.604,-28.263 -26.353,-28.149C-26.608,-27.955 -26.647,-27.907 -26.805,-28.144M-36.92,-24.806C-36.927,-24.819 -36.833,-24.888 -36.768,-24.946C-36.354,-24.881 -36.41,-24.564 -36.371,-24.234C-36.69,-24.124 -36.751,-24.606 -36.92,-24.806M-37.968,-28.243C-37.775,-28.76 -37.731,-29.621 -37.25,-29.897C-36.862,-29.383 -37.713,-28.71 -37.968,-28.243M-38.137,-28.095C-38.106,-28.139 -38.045,-28.163 -37.994,-28.193C-38.01,-28.085 -38.025,-27.986 -38.136,-27.938C-38.138,-27.991 -38.161,-28.06 -38.137,-28.095M-42.007,-29.671C-41.474,-30.353 -40.765,-30.836 -39.916,-30.955C-40.273,-30.365 -41.76,-28.138 -42.007,-29.671M-41.551,-24.167C-41.147,-23.183 -42.828,-23.232 -42.942,-24.141C-42.569,-24.443 -42.003,-24.172 -41.551,-24.167M-44.33,-27.616C-44.233,-27.723 -44.2,-27.83 -44.062,-27.66C-44.144,-27.604 -44.217,-27.555 -44.291,-27.505C-44.305,-27.543 -44.343,-27.596 -44.33,-27.616M-48.803,-29.064C-47.938,-30.175 -46.94,-29.851 -45.734,-29.418C-46.59,-28.844 -47.71,-29.923 -48.282,-29.036C-48.463,-27.992 -49.429,-28.115 -48.803,-29.064M-51.481,-36.548C-51.404,-36.678 -51.306,-36.797 -51.215,-36.919C-51.18,-36.86 -51.145,-36.801 -51.088,-36.706C-51.179,-36.604 -51.269,-36.504 -51.359,-36.403C-51.402,-36.453 -51.492,-36.53 -51.481,-36.548M-51.205,-28.458C-50.904,-28.24 -51.226,-27.902 -51.471,-28.251C-51.35,-28.345 -51.278,-28.402 -51.205,-28.458M-51.19,-47.249C-51.186,-47.278 -51.094,-47.294 -51.042,-47.316C-51.006,-47.178 -50.931,-47.103 -51.136,-47.067C-51.157,-47.129 -51.197,-47.192 -51.19,-47.249M-51.488,-37.849C-51.401,-38.185 -51.484,-38.614 -51.069,-38.716C-50.822,-38.325 -51.146,-37.585 -51.449,-37.301C-51.583,-37.475 -51.482,-37.651 -51.428,-37.836C-51.448,-37.84 -51.468,-37.845 -51.488,-37.849M-52.316,-49.487C-52.274,-49.501 -52.233,-49.516 -52.149,-49.545C-52.113,-49.472 -52.075,-49.395 -52.037,-49.318C-52.201,-49.213 -52.233,-49.378 -52.316,-49.487M-47.267,5.903C-47.072,5.847 -46.696,5.916 -46.535,6.043C-46.703,6.291 -47.042,5.948 -47.267,5.903M-50.8,0.499C-50.686,0.337 -50.571,0.176 -50.457,0.014C-50.428,0.048 -50.4,0.082 -50.324,0.172C-50.477,0.272 -50.604,0.648 -50.8,0.499M-53.8,2.359C-53.441,2.388 -52.97,2.137 -52.718,2.452C-52.967,2.755 -53.452,2.374 -53.8,2.359M-54.075,2.105C-53.933,2.125 -53.883,2.219 -53.849,2.348C-54.014,2.338 -54.078,2.27 -54.075,2.105M-54.455,-11.884C-54.487,-11.833 -54.522,-11.78 -54.556,-11.726C-54.689,-11.798 -54.596,-11.879 -54.551,-11.976C-54.522,-11.949 -54.494,-11.921 -54.455,-11.884M-54.487,-39.717C-54.537,-39.967 -54.992,-40.465 -54.662,-40.573C-54.292,-40.589 -53.869,-39.451 -54.487,-39.717M-54.925,-14.049C-54.876,-14.071 -54.854,-14.061 -54.842,-14.009L-54.881,-13.968C-54.895,-13.995 -54.91,-14.022 -54.925,-14.049M-55.862,0.742C-55.812,0.649 -55.744,0.566 -55.683,0.478C-55.665,0.521 -55.646,0.564 -55.611,0.642C-55.681,0.713 -55.76,0.794 -55.84,0.875C-55.849,0.83 -55.879,0.774 -55.862,0.742M-58.527,-0.06C-58.405,-0.169 -58.167,-0.402 -57.995,-0.28C-58.146,0.513 -59.155,1.133 -58.527,-0.06M-58.237,-2.71C-58.124,-2.729 -58.021,-2.806 -57.874,-2.876C-57.649,-2.046 -59.469,-2.372 -58.237,-2.71M-58.575,-34.227C-58.634,-34.331 -58.607,-34.369 -58.496,-34.392C-58.435,-34.289 -58.47,-34.254 -58.575,-34.227M-57.394,-17.887C-57.527,-17.673 -57.662,-17.463 -57.797,-17.251C-58.131,-17.509 -57.575,-17.775 -57.47,-17.99C-57.42,-17.922 -57.39,-17.894 -57.394,-17.887M-57.202,-24.636C-57.319,-24.792 -57.234,-24.828 -57.094,-24.891C-57.083,-24.853 -57.071,-24.814 -57.054,-24.76C-57.1,-24.721 -57.151,-24.679 -57.202,-24.636M-56.59,-9.655C-56.592,-9.67 -56.566,-9.69 -56.552,-9.708C-56.52,-9.659 -56.488,-9.609 -56.458,-9.565C-56.497,-9.522 -56.519,-9.496 -56.542,-9.471C-56.559,-9.532 -56.579,-9.593 -56.59,-9.655M-56.119,-1.967C-55.585,-1.803 -56.575,-0.604 -57.154,-0.49C-56.965,-1.165 -56.586,-1.598 -56.119,-1.967M-57.696,-22.189C-56.61,-22.923 -58.041,-21.075 -58.495,-20.959C-58.635,-21.43 -57.925,-21.79 -57.696,-22.189M-58.284,-41.308C-58.555,-41.466 -58.35,-41.846 -58.407,-42.127C-58.157,-42.016 -58.304,-41.573 -58.284,-41.308M-58.314,-43.307C-58.376,-43.475 -58.544,-43.552 -58.283,-43.661C-58.254,-43.512 -58.155,-43.394 -58.314,-43.307M-59.252,-20.084C-59.242,-20.044 -59.231,-20.004 -59.202,-19.897C-59.253,-19.863 -59.331,-19.81 -59.41,-19.757C-59.551,-19.939 -59.38,-19.984 -59.252,-20.084M-59.542,-21.674C-59.56,-21.66 -59.618,-21.694 -59.658,-21.706C-59.609,-21.78 -59.561,-21.854 -59.513,-21.926C-59.449,-21.889 -59.413,-21.869 -59.378,-21.85C-59.431,-21.79 -59.48,-21.723 -59.542,-21.674M-59.769,-19.353C-59.656,-19.236 -59.751,-19.196 -59.845,-19.116C-59.971,-19.263 -59.875,-19.272 -59.769,-19.353M-60.192,-48.934C-60.433,-49.095 -60.104,-49.348 -60.021,-49.541C-59.974,-49.448 -59.928,-49.354 -59.841,-49.183C-59.964,-49.092 -60.075,-49.008 -60.192,-48.934M-60.774,1.58C-60.712,1.492 -60.63,1.417 -60.557,1.337C-60.485,1.611 -60.632,1.613 -60.85,1.909C-60.803,1.696 -60.806,1.626 -60.774,1.58M-60.934,-16.181C-60.947,-16.177 -60.979,-16.231 -61.002,-16.258C-60.929,-16.328 -60.884,-16.363 -60.817,-16.259C-60.858,-16.229 -60.893,-16.195 -60.934,-16.181M-61.812,-26.753C-61.8,-26.916 -61.813,-27.07 -61.623,-27.117C-61.554,-26.989 -61.679,-26.744 -61.812,-26.753M-62.033,-49.222C-62.017,-49.262 -62.001,-49.302 -61.984,-49.341C-61.866,-49.31 -61.858,-49.262 -61.918,-49.162C-61.956,-49.182 -61.995,-49.202 -62.033,-49.222M-63.305,-40.719C-63.142,-41.19 -62.969,-41.64 -62.451,-41.792C-61.901,-41.122 -62.727,-40.16 -63.305,-40.719M-22.409,25.626C-24.233,26.944 -26.211,28.392 -28,29.562C-30.412,30.298 -32.64,32.13 -34.964,33.187C-40.609,35.181 -46.348,36.686 -52.289,37.508C-59.427,37.992 -66.437,36.599 -73.349,35.134C-80.632,32.921 -87.012,28.825 -92.467,23.532C-92.155,23.19 -92.117,22.442 -91.508,22.555C-91.302,22.607 -91.209,22.404 -91.335,22.299C-91.823,21.144 -89.867,20.07 -89.361,19.009C-87.688,23.167 -87.428,20.638 -86.669,17.995C-81.044,4.47 -52.379,6.155 -40.129,8.029C-38.885,7.907 -36.637,8.768 -36.151,9.449C-36.812,9.841 -35.929,10.001 -35.822,10.392C-35.728,10.974 -35.12,10.979 -34.695,11.16C-32.897,11.658 -30.948,12.283 -29.374,13.727C-28.258,14.396 -29.666,15.32 -29.594,16.144C-27.834,20.403 -28.174,16.813 -26.343,16.593C-24.618,18.479 -23.82,21.096 -21.839,22.644C-21.044,22.612 -20.503,23.22 -20.16,23.924C-20.88,24.527 -21.748,25.026 -22.409,25.626M-42.939,39.269C-41.469,38.84 -39.873,38.469 -38.35,38.127C-40.148,38.645 -41.959,39.212 -43.818,39.447C-43.524,39.389 -43.231,39.33 -42.939,39.269M-28.17,30.065L-28.17,30.066L-28.17,30.065ZM-47.834,40.199C-48.497,40.423 -49.114,40.516 -49.729,40.481C-49.075,40.391 -48.48,40.246 -47.834,40.199M-18.85,22.887C-19.199,21.913 -19.802,21.032 -20.168,20.089C-20.145,20.075 -20.121,20.061 -20.097,20.047C-19.451,20.792 -19.02,21.68 -18.174,22.222C-18.351,22.553 -18.602,22.676 -18.85,22.887M-2.986,-15.281C-2.531,-6.999 -4.961,1.089 -8.619,8.547L-8.477,8.598C-11.204,12.733 -13.608,17.062 -17.143,20.719C-32.73,-3.753 -47.202,16.69 -52.684,-19.619C-49.794,-18.824 -48.831,-20.471 -48.14,-22.744C-47.207,-22.013 -45.96,-21.932 -44.838,-22.301C-43.713,-22.721 -42.645,-21.62 -41.446,-21.812C-38.233,-21.781 -40.947,-26.766 -37.024,-22.793C-36.172,-22.425 -34.927,-22.026 -34.397,-23.07C-33.547,-24.04 -31.875,-23.571 -30.928,-24.482C-29.5,-26.093 -27.245,-24.546 -25.491,-25.542C-21.24,-26.141 -19.94,-31.658 -24.588,-32.989C-25.601,-34.413 -25.152,-37.945 -28.248,-36.826C-30.618,-36.6 -30.241,-32.155 -31.853,-32.756C-32.467,-33.51 -33.484,-33.51 -34.373,-33.457C-35.102,-33.373 -35.912,-33.328 -36.399,-32.728C-38.339,-31.572 -41.111,-33.871 -43.086,-31.55C-44.027,-30.173 -44.802,-30.124 -46.115,-31.124C-47.618,-32.626 -50.26,-30.081 -50.873,-31.233C-51.026,-34.329 -44.776,-30.641 -43.848,-35.174C-43.499,-36.364 -41.625,-35.344 -40.644,-35.701C-37.527,-36.305 -38.994,-38.215 -37.455,-39.361C-36.183,-39.626 -35.06,-40.992 -33.715,-40.4C-31.485,-39.353 -26.931,-41.071 -28.848,-43.995C-29.358,-45.051 -27.29,-44.339 -26.753,-44.33C-24.977,-44.057 -20.532,-45.969 -23.504,-47.678C-24.522,-48.429 -25.451,-49.609 -26.807,-49.589C-28.633,-50.149 -29.053,-52.798 -31.436,-52.73C-33.481,-53.099 -36.482,-52.008 -36.317,-49.555C-36.348,-49.018 -36.39,-48.968 -36.931,-49.025C-39.385,-50.039 -39.735,-47.067 -40.808,-45.475C-40.924,-45.219 -40.936,-45.116 -41.241,-45.285C-42.51,-46.219 -44.016,-45.151 -44.661,-43.947C-45.559,-41.569 -45.861,-42.704 -47.733,-43.104C-47.881,-43.895 -45.781,-44.877 -46.673,-46.312C-47.474,-47.995 -43.091,-46.801 -44.497,-48.967C-44.781,-49.355 -44.774,-49.377 -44.428,-49.769C-41.471,-52.305 -40.05,-53.813 -44.483,-55.778C-45.162,-56.112 -45.165,-56.096 -45.047,-56.81C-45.735,-61.069 -52.332,-61.076 -52.735,-56.699C-52.101,-54.719 -55.072,-53.028 -54.344,-50.822C-54.21,-49.799 -51.88,-47.879 -53.148,-47.267C-54.983,-46.289 -54.126,-43.345 -54.867,-41.703C-54.879,-42.785 -55.323,-43.65 -55.892,-44.511C-55.912,-45.472 -55.719,-46.609 -56.434,-47.325C-57.018,-47.777 -56.368,-47.781 -56.272,-48.274C-56.272,-50.549 -54.584,-52.862 -56.455,-54.805C-56.893,-56.089 -53.023,-57.571 -54.272,-59.024C-55.465,-60.088 -56.876,-60.337 -58.322,-60.643C-59.136,-61.159 -60.206,-61.976 -61.197,-61.558C-62.722,-61.153 -62.212,-58.581 -63.676,-58.595C-66.121,-59.388 -67.864,-59.161 -67.816,-56.191C-69.153,-54.619 -70.328,-52.847 -69.72,-50.838C-74.205,-46.651 -67.053,-47.071 -66.211,-44.15C-65.826,-43.161 -64.158,-43.355 -64.016,-42.403C-64.301,-41.604 -63.584,-38.866 -64.9,-39.251C-65.865,-39.955 -67.55,-38.393 -68.125,-39.108C-67.629,-41.034 -70.335,-44.606 -72.336,-43.407C-73.282,-42.286 -74.345,-43.935 -75.49,-43.918C-76.943,-44.23 -75.786,-46.163 -75.94,-47.208C-77.371,-50.947 -81.51,-48.448 -81.513,-45.228C-81.88,-45.37 -82.182,-45.701 -82.032,-46.096C-81.643,-47.044 -82.325,-47.936 -82.506,-48.85C-83.426,-51.895 -87.834,-51.171 -87.81,-48.01C-87.989,-47.038 -89.421,-47.352 -90.027,-46.627C-92.612,-45.126 -91.782,-41.68 -89.05,-41.036C-87.76,-40.266 -86.446,-41.951 -85.207,-41.116C-84.37,-40.525 -83.492,-40.712 -82.613,-40.831C-78.548,-41.995 -84.266,-38.056 -82.716,-36.768C-81.088,-34.417 -77.437,-37.564 -76.654,-36.035C-76.43,-35.117 -76.025,-34.364 -75.32,-33.735C-74.167,-32.712 -72.381,-34.939 -71.703,-33.244C-70.367,-31.722 -67.823,-32.275 -66.436,-31.209C-66.291,-30.854 -65.441,-29.746 -65.979,-29.67C-67.442,-30.093 -69.083,-30.723 -70.083,-29.155C-70.283,-28.868 -70.412,-28.945 -70.665,-29.123C-72.763,-31.099 -74.982,-29.449 -76.965,-29.451C-81.562,-33.943 -80.977,-27.599 -85.75,-31.624C-87.296,-32.26 -90.707,-31.783 -90.974,-29.887C-90.871,-29.289 -90.877,-29.284 -91.447,-29.187C-96.547,-28.979 -95.027,-22.343 -90.529,-22.875C-88.302,-22.853 -86.437,-25.445 -84.322,-24.562C-83.445,-23.421 -82.39,-24.962 -81.285,-24.937C-80.413,-25.143 -81.082,-23.954 -81.171,-23.552C-81.493,-21.301 -76.956,-20.404 -75.61,-21.888C-74.401,-21.951 -73.547,-24.416 -72.496,-23.138C-71.79,-22.067 -70.129,-22.362 -69.878,-20.919C-69.588,-20.314 -69.476,-19.476 -68.862,-19.118C-62.497,-18.393 -62.217,-23.908 -64.195,-11.158C-68.916,14.182 -80.837,0.362 -96.009,19.858C-108.899,5.486 -113.526,-18.172 -103.822,-35.151L-104.199,-35.55C-94.658,-56.183 -70.438,-68.506 -47.843,-64.859C-32.716,-62.784 -18.881,-53.345 -10.439,-40.764C-5.699,-33.469 -3.806,-24.461 -2.835,-16.012C-3.008,-15.746 -2.994,-15.457 -2.986,-15.281M1.104,-13.516C1.146,-16.378 0.445,-19.417 0.737,-22.187C0.769,-22.565 0.092,-24.435 0.851,-24.506C-0.284,-24.699 -0.182,-24.631 -0.353,-25.743C-0.346,-25.75 -0.004,-26.092 0.015,-26.11C-0.09,-26.24 -0.507,-26.585 -0.428,-26.789L-0.166,-26.814C-1.689,-34.66 -5.523,-42.141 -10.61,-48.11C-19.505,-59.304 -33.726,-67.195 -48.147,-69.029C-57.57,-70.891 -67.969,-69.554 -77.123,-66.29C-80.924,-64.596 -85.737,-63.824 -87.736,-59.98C-88.134,-60.114 -88.652,-59.569 -88.343,-59.205C-111.02,-44.459 -119.104,-11.795 -106.542,12.193C-109.011,14.612 -100.387,22.325 -98.688,24.437C-87.07,36.094 -70.07,41.218 -53.771,40.794C-57.958,41.158 -62.139,40.327 -66.276,40.422C-66.839,39.957 -67.483,40.126 -68.158,40.025C-69.323,39.874 -71.149,39.093 -72.386,39.235C-73.401,38.501 -74.781,38.564 -75.954,38.229C-77.071,37.66 -78.016,37.3 -79.329,37.214C-81.349,36.086 -83.61,35.037 -85.711,34.238C-87.657,32.805 -89.895,31.765 -91.999,30.553C-92.216,30.078 -93.035,30.095 -93.516,30.269C-93.98,30.096 -95.067,29.559 -95.556,29.353L-94.8,31.708L-94.557,31.708C-76.072,46.847 -47.491,47.025 -26.768,36.038C-8.743,26.38 1.35,6.54 1.104,-13.516" style="fill:rgb(0,8,16);fill-rule:nonzero;"/>
        </g>
    </g>
</svg>
