<?xml version="1.0" encoding="UTF-8" standalone="no"?>
<!DOCTYPE svg PUBLIC "-//W3C//DTD SVG 1.1//EN" "http://www.w3.org/Graphics/SVG/1.1/DTD/svg11.dtd">
<svg width="100%" height="100%" viewBox="0 0 121 126" version="1.1" xmlns="http://www.w3.org/2000/svg" xmlns:xlink="http://www.w3.org/1999/xlink" xml:space="preserve" xmlns:serif="http://www.serif.com/" style="fill-rule:evenodd;clip-rule:evenodd;stroke-linejoin:round;stroke-miterlimit:1.41421;">
    <g id="cirkel" transform="matrix(1,0,0,1,-80,-100)">
        <path d="M196.9,163.4C197,159.9 195.8,155.5 196.6,152.4C195.6,152.4 195,151.5 195.8,150.8C195.1,150.2 195.9,149.5 195.3,148.5C193.5,141.3 190,134.4 185.2,128.8C168.1,107.2 134.9,100.7 110.3,114.2C105.6,119.8 98.7,123.9 94.1,130.5C80,149 82,172 89.2,191.7C100.2,209.5 121.5,218.5 142,217.7C137.8,218.1 133.6,217.2 129.5,217.3C122.8,216 116.1,214.1 110.1,211.1C107,208.8 103.7,207.4 100.3,206.2C108.1,219.5 136.2,222.5 150.6,219.3C177.8,215.4 197.8,190.5 196.9,163.4ZM192.8,161.6C193.3,175 187.4,187.8 178.6,197.6C165.6,176.6 145.4,188.6 143.1,157.3C145.8,158.1 147.1,156.4 147.6,154.2C149.6,155.4 152,154.3 154.3,155.1C157.3,155 155.2,150.3 158.7,154.1C160.8,155.1 162.7,152.9 164.8,152.4C166.3,150.8 168.6,152.3 170.4,151.3C174.6,150.6 175.6,145.2 171.1,143.9C170.2,142.5 170.4,138.9 167.4,140.1C163.6,142.1 166.6,145.2 161.3,143.5C158.4,145.3 155.4,143.3 152.6,145.4C151.7,146.8 150.9,146.8 149.6,145.8C148.1,144.3 145.7,146.8 144.8,145.7C145.1,142.6 151.3,146 151.8,141.8C152.7,140.6 155.3,141.9 156.8,140.5C157.8,139.6 157,137.6 158.8,137.4C161.2,135.5 169,138.6 166.9,133C167.3,131.9 176.3,133 172.2,129.3C167.5,126.3 161.8,120.3 158.8,128C156,126.7 156.1,131 154.5,131.7C151,129.9 151.3,136.3 148,133.9C147.5,133.7 148.2,133.4 148.4,133.2C149.3,132.5 149.4,131.4 149,130.4C148.8,129.1 152.6,130.1 151.3,128C150.7,126.1 156.5,124.7 153.5,122.6C152.8,121.6 150.5,121.6 150.8,120.2C146.9,111.7 141.5,121.1 141.5,126.2C144.2,129.4 141,131.5 141,135.3C137.8,128 141.8,125.9 139.4,122.2C139,120.8 142.8,119.5 141.6,118C139.5,116.8 137,115.6 134.7,115.5C133.2,115.9 133.7,118.5 132.2,118.5C129.1,117.4 128.4,118.6 127.8,121.4C125.3,123 126.9,125.8 125.2,127.4C123.2,130.3 128,130.5 129.2,131.8C129.3,133.5 131.4,133.5 131.9,134.6C132.3,138.4 130.9,137.3 128,138.1C127.6,137 127.6,135 126.1,134.1C124,132.3 122.9,134.7 120,132.9C121,127.7 115.2,125.7 114.4,131.7C114.1,128.1 110.1,122.5 108.1,128.9C107.1,130.2 103.6,130.8 104.3,133.3C105.8,137.3 111.3,135.9 114.6,135.7C115.6,136.9 111.8,138.7 113.2,140.1C114.7,142.4 118.1,139.4 119.3,140.8C119.6,141.8 120.1,142.9 121.1,143.3C122.7,143.4 123.7,142.3 124.8,144C126.6,145.4 129.6,144.3 130.2,147C129.2,147.5 126.9,145.7 125.9,147.7C120.5,145.5 121.4,148.7 115.8,145.7C112.6,148.2 111,144.4 107.7,145.1C105.3,145.4 105.5,146.6 104.6,147.7C99.5,147.9 101,154.6 105.5,154C107.7,154 109.6,151.4 111.7,152.3C112.6,153.4 113.6,151.9 114.7,151.9C114.3,155.7 119.3,157.1 122.2,153.7C125.9,152.8 126.9,161.2 131.7,157C134.9,163.1 129.6,176.9 123.7,182C112,182.1 99.4,200.5 97.8,194C82,174.4 84.1,143.7 102,127C132.8,95 192,115.6 192.8,161.6ZM177,199.8C176.7,198.8 175.8,197.8 175.8,197C176.1,198 178.4,199.1 177,199.8ZM148,217.1C147.3,217.3 146.7,217.4 146.1,217.4C146.7,217.3 147.3,217.2 148,217.1ZM165.3,208.1L165.3,208.1ZM167.7,207L167.7,207ZM152.9,216.2C154.4,215.8 156,215.4 157.5,215.1C155.7,215.6 153.9,216.2 152,216.4C152.3,216.3 152.6,216.2 152.9,216.2ZM173.4,202.5C159.3,213.8 139.9,217 122.5,212C119,211.3 100.6,202 104.5,199.2C106.1,192.7 107.6,200.7 108.9,196.6C111,185.3 125.9,185.2 134.8,183.9C143.4,183.5 155.7,182.7 161.2,188.1C167.5,189.9 165.8,190 167.3,195C170.9,192.6 169.7,194.1 172.3,197.6C173.5,200.1 177.7,200.2 173.4,202.5ZM132.5,136.2C132.6,135.5 133.5,134.6 133.5,135.8C133.8,136.2 132.6,136.6 132.5,136.2ZM133.8,127.7C133.8,127.6 133.9,127.6 134,127.6C134,127.7 133.9,127.8 133.8,127.7ZM134,150.2C134,150 134,149.9 134.2,149.8C134.3,149.9 134.1,150.2 134,150.2ZM134.9,160.7C134.8,160.7 134.8,160.6 134.9,160.5C135,160.6 135,160.7 134.9,160.7ZM135.1,178.5C135.2,178.4 135.2,178.3 135.3,178.3C135.4,178.6 135.2,178.6 135,178.9C135,178.6 135,178.5 135.1,178.5ZM135.6,128C135.4,127.8 135.7,127.6 135.8,127.4C136,127.6 136,127.8 135.6,128ZM136.1,157.6C136.2,157.7 136.1,157.8 136,157.8C135.9,157.6 135.9,157.6 136.1,157.6ZM136.3,155.2C136.1,155.2 136.3,154.8 136.5,155C136.4,155.1 136.3,155.2 136.3,155.2ZM136.6,156.8C136.7,156.9 136.6,157 136.4,157.1C136.3,157 136.4,156.9 136.6,156.8ZM137.5,133.6C137.4,133.4 137.3,133.4 137.5,133.2C137.6,133.4 137.7,133.5 137.5,133.6ZM137.5,135.6C137.3,135.5 137.3,134.9 137.4,134.8C137.6,135 137.5,135.3 137.5,135.6ZM138.1,154.7C139.2,154.1 137.8,155.6 137.5,155.9C136.9,155.9 137.9,155 138.1,154.7ZM139.7,174.9C140.2,175.1 139.2,176.3 138.7,176.4C138.9,175.7 139.2,175.3 139.7,174.9ZM139.2,167.3C139.3,167.2 139.4,167.4 139.2,167.5C139.3,167.4 139.2,167.3 139.2,167.3ZM138.6,152.3C138.5,152.1 138.6,152.1 138.7,152C138.8,152.1 138.7,152.2 138.6,152.3ZM138.4,159C138.2,159.2 138.1,159.7 137.9,159.6C137.9,159.3 138.3,158.8 138.4,159ZM137.2,142.7C137.1,142.6 137.2,142.6 137.3,142.5C137.4,142.6 137.4,142.7 137.2,142.7ZM137.6,174.2C138.4,173.8 137.7,174.7 137.2,174.6C137,174.4 137.4,174.2 137.6,174.2ZM137.3,176.8C138.4,175.8 137.4,178.1 137.1,177.4C137.1,177.2 137.2,177 137.3,176.8ZM140,177.7C140,177.6 140.1,177.5 140.2,177.4C140.3,177.6 140.2,177.7 140,177.8C140,177.7 139.9,177.7 140,177.7ZM140.9,162.9C140.9,162.8 141,162.8 140.9,162.9C140.9,163 140.9,162.9 140.9,162.9ZM141.3,137.2C141.2,136.9 140.8,136.5 141.1,136.3C141.5,136.3 142,137.5 141.3,137.2ZM141.4,165C141.4,165.1 141.3,165.2 141.2,165.1C141.2,165 141.3,164.9 141.4,165ZM141.7,179C141.8,179 141.9,179.1 141.9,179.2C141.8,179.2 141.7,179.2 141.7,179ZM142,179.3C142.4,179.3 142.8,179.1 143.1,179.4C142.9,179.7 142.4,179.3 142,179.3ZM145,177.4C145.2,177.3 145.3,176.7 145.5,177.1C145.3,177.2 145.2,177.6 145,177.4ZM148.6,182.8C148.8,182.7 149.2,182.8 149.3,182.9C149.1,183.2 148.8,182.9 148.6,182.8ZM143.5,127.4C143.7,127.3 143.7,127.4 143.8,127.6C143.6,127.7 143.6,127.5 143.5,127.4ZM144.3,139.1C144.3,138.7 144.6,137.8 144.8,138.5C144.8,139 144.3,140.2 144.3,139.1ZM144.6,129.7C144.7,129.6 144.8,129.7 144.8,129.8C144.8,129.9 144.6,129.8 144.6,129.7ZM144.6,148.4C144.8,148.5 144.8,148.7 144.6,148.8C144.3,148.8 144.4,148.5 144.6,148.4ZM144.3,140.4C144.4,140.2 144.6,139.9 144.7,140.2C144.6,140.3 144.4,140.6 144.3,140.4ZM147,147.8C147.9,146.7 148.9,147 150.1,147.4C149.2,148 148.1,146.9 147.6,147.8C147.4,148.9 146.4,148.8 147,147.8ZM151.5,149.3C151.6,149.2 151.6,149.1 151.8,149.3C151.7,149.3 151.5,149.5 151.5,149.3ZM154.3,152.7C154.7,152.9 154,153.5 153.8,153.5C152.3,153 153.1,152.4 154.3,152.7ZM153.8,147.2C154.3,146.5 155,146 155.9,145.9C155.6,146.5 154.1,148.8 153.8,147.2ZM157.7,148.8L157.8,148.7C157.8,148.8 157.8,148.9 157.7,149C157.7,148.9 157.7,148.8 157.7,148.8ZM157.9,148.7C158.1,148.2 158.1,147.3 158.6,147C159,147.5 158.1,148.2 157.9,148.7ZM158.9,152.1C159.3,151.7 159.5,152.3 159.4,152.7C159.1,152.8 159.1,152.3 158.9,152.1ZM169,148.8C169.1,148.6 169.2,148.7 169.5,148.8C169.2,149 169.2,149 169,148.8ZM145.7,121C145.8,120.9 145.9,120.9 146,120.8C145.9,120.9 145.8,121.2 145.7,121ZM146.1,120.7C146.3,120.5 146.2,120.6 146.1,120.7C146.2,120.6 146.2,120.3 146.1,120.7ZM149,142.1C149.2,141.7 149.1,140.7 149.6,140.7C150.2,141.2 149.5,142.5 149,142.1ZM155.2,138.3C155.5,137.5 155.8,138.6 155.3,138.9C155.1,138.9 155.1,138.5 155.2,138.3ZM162.2,130.4C162.4,129.9 162.6,130 162.3,130.4C162.3,130.5 162.2,130.5 162.2,130.4ZM165.8,129.4C165.8,129 166.5,128.4 166.8,129C166.8,129.3 166,129.8 165.8,129.4ZM169.2,131.2C169.4,130.8 169.7,130.4 170.1,130.8C169.8,131.2 169.6,131.2 169.2,131.2ZM170.8,129.9C170.9,129.4 171.2,129.7 171.6,129.9C171.3,130.2 170.8,130.4 170.8,129.9ZM132.5,124.1C132.5,124.2 132.4,124.1 132.4,124.1L132.5,124.1ZM131.1,141.9C131,142 130.8,142.1 130.8,141.9C130.9,141.7 131,141.7 131.1,141.9ZM106.9,152.1C106.9,152.2 106.9,152.2 106.8,152.2C106.8,152.1 106.8,152 106.9,152.1ZM195.8,153L196,152.9L195.9,153.2C195.8,153.1 195.8,153 195.8,153Z" style="fill:white;fill-rule:nonzero;"/>
    </g>
</svg>
